<?xml version="1.0" encoding="UTF-8"?>
<svg id="Laag_1" data-name="Laag 1" xmlns="http://www.w3.org/2000/svg" viewBox="0 0 859.74 325.17">
  <defs>
    <style>
      .cls-1 {
        fill: #fff;
      }
    </style>
  </defs>
  <path class="cls-1" d="M422.47,324.34c44.32-5.69,82.8-25.35,110.6-61.01,13.01-16.7,23.48-36.81,28.47-57.42,7.7-31.82,5.11-66.57,5.12-99.15l-.2-106.04-87.2-.09c-14.7,0-30.47-1.2-44.99.51-43.02,3.67-80.52,23.64-108.24,56.69-1.9,2.25-3.72,4.56-5.48,6.92s-3.45,4.77-5.07,7.24c-1.62,2.46-3.16,4.97-4.63,7.52-1.47,2.55-2.86,5.15-4.17,7.78-1.31,2.64-2.55,5.31-3.71,8.02-1.16,2.71-2.23,5.45-3.22,8.22s-1.9,5.57-2.73,8.4c-.83,2.83-1.57,5.68-2.23,8.55-6.89,29.77-4.28,62.65-4.28,93.11l.07,111.44,80.83.08c16.98-.02,34.11.41,51.06-.77h0Z"/>
  <path class="cls-1" d="M582.51,167.55c.06,1.33.14,2.65.24,3.97,3.14,45.92,23.89,84.09,58.65,113.97,20.26,17.42,44.14,27.74,69.89,34.14,21.42,4.13,42.92,3.25,64.61,3.22l82.98-.51c1.16-107.26,1.15-214.52-.02-321.79l-84.17-.08c-13.23-.02-27.18-1.02-40.32-.05-43.63,2.9-82.64,20.67-111.7,53.74-.88.99-1.75,1.99-2.61,3s-1.7,2.03-2.53,3.07c-.83,1.03-1.65,2.08-2.46,3.13s-1.6,2.12-2.38,3.19-1.55,2.16-2.3,3.25-1.49,2.19-2.22,3.31c-.72,1.11-1.44,2.23-2.13,3.36-.7,1.13-1.38,2.27-2.05,3.41-.67,1.15-1.32,2.3-1.96,3.46-.64,1.16-1.26,2.33-1.87,3.51s-1.21,2.36-1.79,3.56c-.58,1.19-1.15,2.39-1.7,3.6s-1.09,2.42-1.61,3.64c-.52,1.22-1.02,2.45-1.51,3.68s-.96,2.47-1.42,3.72c-.46,1.25-.9,2.5-1.33,3.75-.43,1.26-.84,2.52-1.23,3.78-.4,1.27-.77,2.54-1.14,3.81-.36,1.28-.71,2.56-1.04,3.84-.33,1.28-.65,2.57-.95,3.87-.3,1.29-.58,2.59-.85,3.89-.27,1.3-.52,2.6-.75,3.91s-.45,2.61-.65,3.92-.39,2.63-.56,3.94c-.17,1.32-.32,2.63-.46,3.95-.14,1.32-.25,2.64-.36,3.96-.1,1.32-.19,2.65-.26,3.97s-.12,2.65-.16,3.98-.06,2.65-.06,3.98.01,2.65.04,3.98c.03,1.33.08,2.65.14,3.98h0Z"/>
  <path class="cls-1" d="M82.36,322.31c16.95-.01,34.35.75,51.23-.76,37.01-3.3,68.94-20.09,95.04-46.08l.22-.23c31.7-35.54,48.41-75.34,45.57-123.57-2.57-43.6-21.57-82.44-54.32-111.33-1.58-1.38-3.18-2.74-4.81-4.06s-3.29-2.61-4.97-3.87c-1.68-1.26-3.39-2.48-5.12-3.67-1.73-1.19-3.48-2.34-5.26-3.46s-3.57-2.2-5.39-3.25-3.66-2.06-5.51-3.03c-1.86-.98-3.73-1.91-5.63-2.82-1.89-.9-3.81-1.76-5.73-2.59-1.93-.83-3.87-1.61-5.83-2.36s-3.93-1.46-5.92-2.13-3.99-1.3-6-1.89c-2.01-.59-4.04-1.14-6.07-1.66-2.04-.51-4.08-.98-6.13-1.41-2.05-.43-4.11-.82-6.18-1.17-2.07-.35-4.15-.66-6.23-.93s-4.17-.49-6.26-.68c-18.49-1.62-37.66-.63-56.24-.61-24.26.03-48.57-.26-72.82.15l.06,321.42,82.31-.02h0Z"/>
</svg>