<?xml version="1.0" encoding="UTF-8"?>
<svg id="Layer_1" data-name="Layer 1" xmlns="http://www.w3.org/2000/svg" viewBox="0 0 822.81 569.41">
  <defs>
    <style>
      .cls-1 {
        fill: #fff;
      }
    </style>
  </defs>
  <path class="cls-1" d="M516.29,165.28c15.1-31.34,26.99-51.55,52.6-75.7C628.06,33.78,730.75-2.19,812.73.23c3.22-.47,6.81-.08,10.08,0-.3,11.96-1.68,23.96-2.76,35.87-3.78,41.49-10.23,86.11-23.96,125.75-25.61,73.91-74.4,135.51-142.26,175.18-12.34,7.22-25.63,12.52-38.47,18.77v142.71c0,23.56.72,47.36,0,70.89h-113.76c.29-16.16.01-32.34.01-48.5v-94.77c0-15.33-3.37-57.66,3.21-69.74,5.92-10.89,13.25-21.16,19.74-31.73l76.19-124.9c17.85-30.06,40.91-71.35,68.8-92.07,4.4-3.27,9.57-5.19,13.63-8.97-13.02,3.02-26.53,10.81-38.36,16.84-87.19,50.91-112.65,123.55-167.73,201.06-3.43-4.92-6.32-10.4-9.31-15.6L326.5,51.36c-3.43-5.9-7.15-11.72-10.15-17.85l83.13-.03c34.52.11,42.65-7.11,60.17,26.1l14.89,28.78c12.81,24.67,27.88,52.93,41.75,76.92Z"/>
  <path class="cls-1" d="M0,458.72c19.57.31,39.15.01,58.73,0h165.89c12.38,0,25.58.78,37.78-1.43,37.46-6.81,51.65-58.2,24.31-85.34-16.48-16.36-37.73-14.43-59.12-14.37l-43.55-.09c-54.69-.01-90.41-4.85-132.36-46.63-66.57-66.29-65.54-167.07.74-233.06,42.38-42.19,79.55-44.3,133.77-44.31h65.06c4.71-.4,9.52-.1,14.24.01,6.82,13.01,15.01,25.57,22.44,38.25l41.94,71.74-147.4.2c-9.75-.06-19.63-.66-29.35.25-53.93,5.02-61.5,83.4-7.79,99.21,11.13,3.28,23.81,1.89,35.32,1.84l43.72-.02c38.26.02,69.06,2.35,102.62,21.65,67.14,38.61,102.1,124.3,72.81,197.64-28.08,70.31-93.02,105.14-165.81,105.13h-70.59c-25.6.01-46.18-1.76-70.4-11.42-43.31-17.63-76.99-55.79-92.98-99.28Z"/>
</svg>