<?xml version="1.0" encoding="UTF-8"?>
<svg id="Layer_1" data-name="Layer 1" xmlns="http://www.w3.org/2000/svg" viewBox="0 0 804.51 557.99">
  <defs>
    <style>
      .cls-1 {
        fill: #fff;
      }
    </style>
  </defs>
  <path class="cls-1" d="M0,454.13h213.64c17.93,0,37.77,2.33,51.62-11.62,14.62-14.73,14.86-40.83.86-56.11-9.79-10.68-31.21-22.22-43.9-30.79l-133.26-88.55C35.89,231.32,1.6,213.97,1.26,139.19.93,66.54,49.59,10.18,121.81,2.06c15.89-1.79,31.8-1.48,47.76-1.48h56.6s21.64.01,21.64.01c9.43,29.52,29.49,69.88,42.13,99.8l-139.85-.03c-15.79-.02-30.2-1.26-42.36,10.68-13.36,13.13-14.35,35.87-1.38,49.65,9.49,10.08,36.52,25.86,49.13,34.02l81.91,53.13c28.58,18.15,72.58,44.09,95.95,67.33,53.66,53.34,49.64,147.46-2.89,200.04-37.13,37.15-72.97,42.33-122.57,42.21l-144.36-.02H0C0,523.01.52,488.53,0,454.13Z"/>
  <path class="cls-1" d="M517.07,557.99c-9.02-23.4-18.72-46.51-28-69.81L302.37,21.72c-2.61-6.32-7.39-15.19-8.2-21.72h118.1c1.54,5.4,4.13,10.64,6.19,15.88l44.14,113.68c28.37,72.88,54.68,146.54,84.16,218.98,10.8-35.26,29.73-76.94,43.77-111.28l84.56-211.08c3.46-8.58,7.63-17.29,10.18-26.18,4.82.47,9.74.1,14.58.05l104.65-.05c-20.57,49.71-40,99.92-61,149.44-9.48,22.42-18.08,45.25-27.36,67.75l-139.32,340.8h-59.76Z"/>
</svg>